<svg width="100" height="116" viewBox="0 0 100 116" fill="none" xmlns="http://www.w3.org/2000/svg">
<path d="M49.8939 115.306L99.6889 86.5562V29.0562L49.8939 0.306152L0.098877 29.0562V86.5562L49.8939 115.306Z" fill="#0F0F0F"/>
<path d="M71.5598 54.7126C71.5638 58.8902 70.5535 63.0062 68.6158 66.7071L67.6843 68.3402C65.3675 72.0722 62.136 75.1508 58.2961 77.2841C54.4562 79.4174 50.135 80.5347 45.7423 80.5301V67.6846C47.4447 67.6846 49.1305 67.349 50.703 66.6968C52.2756 66.0446 53.7041 65.0887 54.9068 63.8839C56.1095 62.679 57.0628 61.2488 57.7122 59.6751C58.3616 58.1014 58.6943 56.4151 58.6913 54.7126H71.5598Z" fill="white"/>
<path d="M69.2137 28.8147L39.6012 80.5647H23.2252L52.8377 28.8147H69.2137Z" fill="white"/>
<path d="M68.5698 50.3772H68.2708V48.6752H67.6154V48.3992H69.2138V48.6752H68.5698V50.3772Z" fill="white"/>
<path d="M70.387 50.3772L69.7661 48.8707V50.3772H69.5245V48.3992H69.8925L70.5596 50.0092L71.215 48.3992H71.5945V50.3772H71.3185V48.8592L70.686 50.3772H70.387Z" fill="white"/>
</svg>